<?xml version="1.0" encoding="UTF-8" standalone="no"?>
<!-- Generator: Adobe Illustrator 15.0.0, SVG Export Plug-In . SVG Version: 6.00 Build 0)  -->

<svg
   xmlns:dc="http://purl.org/dc/elements/1.1/"
   xmlns:cc="http://creativecommons.org/ns#"
   xmlns:rdf="http://www.w3.org/1999/02/22-rdf-syntax-ns#"
   xmlns:svg="http://www.w3.org/2000/svg"
   xmlns="http://www.w3.org/2000/svg"
   xmlns:sodipodi="http://sodipodi.sourceforge.net/DTD/sodipodi-0.dtd"
   xmlns:inkscape="http://www.inkscape.org/namespaces/inkscape"
   version="1.1"
   id="Icons"
   x="0px"
   y="0px"
   width="100px"
   height="100px"
   viewBox="0 0 100 100"
   style="enable-background:new 0 0 100 100;"
   xml:space="preserve"
   inkscape:version="0.91 r13725"
   sodipodi:docname="flickr.svg"><metadata
     id="metadata4881"><rdf:RDF><cc:Work
         rdf:about=""><dc:format>image/svg+xml</dc:format><dc:type
           rdf:resource="http://purl.org/dc/dcmitype/StillImage" /><dc:title></dc:title></cc:Work></rdf:RDF></metadata><defs
     id="defs4879" /><sodipodi:namedview
     pagecolor="#ffffff"
     bordercolor="#666666"
     borderopacity="1"
     objecttolerance="10"
     gridtolerance="10"
     guidetolerance="10"
     inkscape:pageopacity="0"
     inkscape:pageshadow="2"
     inkscape:window-width="1598"
     inkscape:window-height="879"
     id="namedview4877"
     showgrid="false"
     inkscape:snap-page="true"
     inkscape:zoom="3.1192714"
     inkscape:cx="-39.604259"
     inkscape:cy="50"
     inkscape:window-x="0"
     inkscape:window-y="19"
     inkscape:window-maximized="1"
     inkscape:current-layer="Icons" /><path
     style="color:#000000;clip-rule:nonzero;display:inline;overflow:visible;visibility:visible;opacity:1;isolation:auto;mix-blend-mode:normal;color-interpolation:sRGB;color-interpolation-filters:linearRGB;solid-color:#000000;solid-opacity:1;fill:#ffffff;fill-opacity:1;fill-rule:nonzero;stroke:none;stroke-width:4.6062994;stroke-miterlimit:4;stroke-dasharray:none;marker:none;color-rendering:auto;image-rendering:auto;shape-rendering:auto;text-rendering:auto;enable-background:accumulate"
     d="M 50 0 A 50 50 0 0 0 0 50 A 50 50 0 0 0 50 100 A 50 50 0 0 0 100 50 A 50 50 0 0 0 50 0 z M 31.689453 35.251953 C 39.903646 35.251953 46.5625 41.856082 46.5625 50.003906 C 46.5625 58.147306 39.903646 64.748047 31.689453 64.748047 C 23.47526 64.748047 16.816406 58.147306 16.816406 50.003906 C 16.816406 41.856082 23.47526 35.251953 31.689453 35.251953 z M 68.310547 35.251953 C 76.526951 35.251953 83.183594 41.856082 83.183594 50.003906 C 83.183594 58.147306 76.526952 64.748047 68.310547 64.748047 C 60.096353 64.748047 53.4375 58.147306 53.4375 50.003906 C 53.4375 41.856082 60.096353 35.251953 68.310547 35.251953 z "
     id="path5423" /></svg>