<?xml version="1.0" encoding="UTF-8" standalone="no"?>
<!-- Generator: Adobe Illustrator 15.0.0, SVG Export Plug-In . SVG Version: 6.00 Build 0)  -->

<svg
   xmlns:dc="http://purl.org/dc/elements/1.1/"
   xmlns:cc="http://creativecommons.org/ns#"
   xmlns:rdf="http://www.w3.org/1999/02/22-rdf-syntax-ns#"
   xmlns:svg="http://www.w3.org/2000/svg"
   xmlns="http://www.w3.org/2000/svg"
   xmlns:sodipodi="http://sodipodi.sourceforge.net/DTD/sodipodi-0.dtd"
   xmlns:inkscape="http://www.inkscape.org/namespaces/inkscape"
   version="1.1"
   id="Icons"
   x="0px"
   y="0px"
   width="100px"
   height="100px"
   viewBox="0 0 100 100"
   style="enable-background:new 0 0 100 100;"
   xml:space="preserve"
   inkscape:version="0.91 r13725"
   sodipodi:docname="twitter.svg"><metadata
     id="metadata4881"><rdf:RDF><cc:Work
         rdf:about=""><dc:format>image/svg+xml</dc:format><dc:type
           rdf:resource="http://purl.org/dc/dcmitype/StillImage" /><dc:title></dc:title></cc:Work></rdf:RDF></metadata><defs
     id="defs4879" /><sodipodi:namedview
     pagecolor="#ffffff"
     bordercolor="#666666"
     borderopacity="1"
     objecttolerance="10"
     gridtolerance="10"
     guidetolerance="10"
     inkscape:pageopacity="0"
     inkscape:pageshadow="2"
     inkscape:window-width="1598"
     inkscape:window-height="879"
     id="namedview4877"
     showgrid="false"
     inkscape:snap-page="true"
     inkscape:zoom="1.1407621"
     inkscape:cx="50"
     inkscape:cy="50"
     inkscape:window-x="0"
     inkscape:window-y="19"
     inkscape:window-maximized="1"
     inkscape:current-layer="Icons" /><path
     style="color:#000000;clip-rule:nonzero;display:inline;overflow:visible;visibility:visible;opacity:1;isolation:auto;mix-blend-mode:normal;color-interpolation:sRGB;color-interpolation-filters:linearRGB;solid-color:#000000;solid-opacity:1;fill:#b3b3b3;fill-opacity:1;fill-rule:nonzero;stroke:none;stroke-width:4.6062994;stroke-miterlimit:4;stroke-dasharray:none;marker:none;color-rendering:auto;image-rendering:auto;shape-rendering:auto;text-rendering:auto;enable-background:accumulate"
     d="M 50 0 A 50 50 0 0 0 0 50 A 50 50 0 0 0 50 100 A 50 50 0 0 0 100 50 A 50 50 0 0 0 50 0 z M 33.615234 16.816406 C 35.872496 16.816406 37.815023 17.631528 39.421875 19.259766 C 41.035364 20.885054 41.849609 22.836587 41.849609 25.115234 L 41.849609 37.15625 L 65.160156 37.15625 C 67.27362 37.15625 69.092529 37.912144 70.603516 39.417969 C 72.113028 40.927481 72.867188 42.735408 72.867188 44.849609 C 72.867187 46.956436 72.113246 48.766576 70.607422 50.28125 C 69.101597 51.783388 67.288209 52.539062 65.183594 52.539062 L 41.849609 52.539062 L 41.849609 58.367188 C 41.849609 60.654685 42.638324 62.591669 44.236328 64.193359 C 45.826956 65.793575 47.762628 66.589844 50.039062 66.589844 L 66.416016 66.589844 C 68.690977 66.589844 70.645718 67.40939 72.269531 69.033203 C 73.894081 70.660703 74.705078 72.611499 74.705078 74.888672 C 74.705078 77.165108 73.894081 79.120109 72.269531 80.740234 C 70.646455 82.368472 68.695361 83.183594 66.421875 83.183594 L 50.048828 83.183594 C 43.226158 83.183594 37.391985 80.762462 32.550781 75.904297 C 27.714001 71.054981 25.294922 65.21194 25.294922 58.373047 L 25.294922 25.123047 C 25.294922 22.778031 26.100876 20.810157 27.712891 19.212891 C 29.319743 17.620788 31.29529 16.816406 33.615234 16.816406 z "
     id="path5423" /></svg>